<svg xmlns="http://www.w3.org/2000/svg" version="1.1" xmlns:xlink="http://www.w3.org/1999/xlink" xmlns:svgjs="http://svgjs.dev/svgjs" width="1000" height="1000"><style>
    #light-icon {
      display: inline;
    }
    #dark-icon {
      display: none;
    }

    @media (prefers-color-scheme: dark) {
      #light-icon {
        display: none;
      }
      #dark-icon {
        display: inline;
      }
    }
  </style><g id="light-icon"><svg xmlns="http://www.w3.org/2000/svg" version="1.1" xmlns:xlink="http://www.w3.org/1999/xlink" xmlns:svgjs="http://svgjs.dev/svgjs" width="1000" height="1000"><g clip-path="url(#SvgjsClipPath1084)"><rect width="1000" height="1000" fill="#ffffff"></rect><g transform="matrix(2,0,0,2,0,0)"><svg xmlns="http://www.w3.org/2000/svg" version="1.1" xmlns:xlink="http://www.w3.org/1999/xlink" xmlns:svgjs="http://svgjs.dev/svgjs" width="500px" height="500px"><svg xmlns="http://www.w3.org/2000/svg" version="1.1" width="500px" height="500px" style="shape-rendering:geometricPrecision; text-rendering:geometricPrecision; image-rendering:optimizeQuality; fill-rule:evenodd; clip-rule:evenodd" xmlns:xlink="http://www.w3.org/1999/xlink">
<g><path style="opacity:1" fill="#fefefe" d="M -0.5,-0.5 C 166.167,-0.5 332.833,-0.5 499.5,-0.5C 499.5,166.167 499.5,332.833 499.5,499.5C 332.833,499.5 166.167,499.5 -0.5,499.5C -0.5,332.833 -0.5,166.167 -0.5,-0.5 Z"></path></g>
<g><path style="opacity:1" fill="#45474b" d="M 223.5,32.5 C 319.291,26.3055 391.791,63.9721 441,145.5C 467.018,194.975 473.685,246.975 461,301.5C 441.321,373.847 396.821,424.347 327.5,453C 254.14,478.914 185.474,469.914 121.5,426C 55.4332,374.894 25.9332,307.394 33,223.5C 45.8638,142.214 89.3638,84.0476 163.5,49C 182.933,40.9779 202.933,35.4779 223.5,32.5 Z"></path></g>
<g><path style="opacity:1" fill="#000000" d="M 237.5,50.5 C 327.554,50.1265 392.388,90.1265 432,170.5C 457.216,233.569 452.882,294.569 419,353.5C 372.618,422.269 307.785,453.436 224.5,447C 154.144,435.602 102.644,398.435 70,335.5C 37.0262,258.669 46.0262,187.336 97,121.5C 134.165,78.834 180.998,55.1673 237.5,50.5 Z"></path></g>
<g><path style="opacity:1" fill="#fdfdfd" d="M 214.5,78.5 C 237.742,78.1726 260.908,78.5059 284,79.5C 295.393,124.974 307.227,170.307 319.5,215.5C 303.833,216.833 288.167,216.833 272.5,215.5C 270.94,208.469 269.273,201.469 267.5,194.5C 255.167,194.5 242.833,194.5 230.5,194.5C 229.167,201.833 227.833,209.167 226.5,216.5C 210.833,216.5 195.167,216.5 179.5,216.5C 191.173,170.474 202.84,124.474 214.5,78.5 Z"></path></g>
<g><path style="opacity:1" fill="#0b0b0b" d="M 247.5,120.5 C 248.5,120.5 249.5,120.5 250.5,120.5C 253.606,133.47 256.606,146.47 259.5,159.5C 252.833,159.5 246.167,159.5 239.5,159.5C 242.275,146.518 244.941,133.518 247.5,120.5 Z"></path></g>
<g><path style="opacity:1" fill="#fafafa" d="M 243.5,224.5 C 264.988,223.821 275.155,234.154 274,255.5C 268.899,269.921 258.733,276.088 243.5,274C 229.079,268.899 222.912,258.733 225,243.5C 228.017,233.984 234.184,227.651 243.5,224.5 Z"></path></g>
<g><path style="opacity:1" fill="#fdfdfd" d="M 179.5,283.5 C 194.991,282.504 210.658,282.17 226.5,282.5C 227.632,289.625 229.299,296.625 231.5,303.5C 243.5,304.833 255.5,304.833 267.5,303.5C 269.17,296.826 270.836,290.16 272.5,283.5C 288.167,282.167 303.833,282.167 319.5,283.5C 307.191,328.735 295.191,374.069 283.5,419.5C 260.51,420.5 237.51,420.833 214.5,420.5C 203.592,374.534 191.926,328.867 179.5,283.5 Z"></path></g>
<g><path style="opacity:1" fill="#050505" d="M 239.5,339.5 C 246.2,339.17 252.866,339.503 259.5,340.5C 256.472,353.281 253.138,365.948 249.5,378.5C 245.666,365.679 242.333,352.679 239.5,339.5 Z"></path></g>
</svg></svg></g></g><defs><clipPath id="SvgjsClipPath1084"><rect width="1000" height="1000" x="0" y="0" rx="0" ry="0"></rect></clipPath></defs></svg></g><g id="dark-icon"><svg xmlns="http://www.w3.org/2000/svg" version="1.1" xmlns:xlink="http://www.w3.org/1999/xlink" xmlns:svgjs="http://svgjs.dev/svgjs" width="1000" height="1000"><g clip-path="url(#SvgjsClipPath1085)"><rect width="1000" height="1000" fill="#ffffff"></rect><g transform="matrix(2,0,0,2,0,0)"><svg xmlns="http://www.w3.org/2000/svg" version="1.1" xmlns:xlink="http://www.w3.org/1999/xlink" xmlns:svgjs="http://svgjs.dev/svgjs" width="500px" height="500px"><svg xmlns="http://www.w3.org/2000/svg" version="1.1" width="500px" height="500px" style="shape-rendering:geometricPrecision; text-rendering:geometricPrecision; image-rendering:optimizeQuality; fill-rule:evenodd; clip-rule:evenodd" xmlns:xlink="http://www.w3.org/1999/xlink">
<g><path style="opacity:1" fill="#fefefe" d="M -0.5,-0.5 C 166.167,-0.5 332.833,-0.5 499.5,-0.5C 499.5,166.167 499.5,332.833 499.5,499.5C 332.833,499.5 166.167,499.5 -0.5,499.5C -0.5,332.833 -0.5,166.167 -0.5,-0.5 Z"></path></g>
<g><path style="opacity:1" fill="#45474b" d="M 223.5,32.5 C 319.291,26.3055 391.791,63.9721 441,145.5C 467.018,194.975 473.685,246.975 461,301.5C 441.321,373.847 396.821,424.347 327.5,453C 254.14,478.914 185.474,469.914 121.5,426C 55.4332,374.894 25.9332,307.394 33,223.5C 45.8638,142.214 89.3638,84.0476 163.5,49C 182.933,40.9779 202.933,35.4779 223.5,32.5 Z"></path></g>
<g><path style="opacity:1" fill="#000000" d="M 237.5,50.5 C 327.554,50.1265 392.388,90.1265 432,170.5C 457.216,233.569 452.882,294.569 419,353.5C 372.618,422.269 307.785,453.436 224.5,447C 154.144,435.602 102.644,398.435 70,335.5C 37.0262,258.669 46.0262,187.336 97,121.5C 134.165,78.834 180.998,55.1673 237.5,50.5 Z"></path></g>
<g><path style="opacity:1" fill="#fdfdfd" d="M 214.5,78.5 C 237.742,78.1726 260.908,78.5059 284,79.5C 295.393,124.974 307.227,170.307 319.5,215.5C 303.833,216.833 288.167,216.833 272.5,215.5C 270.94,208.469 269.273,201.469 267.5,194.5C 255.167,194.5 242.833,194.5 230.5,194.5C 229.167,201.833 227.833,209.167 226.5,216.5C 210.833,216.5 195.167,216.5 179.5,216.5C 191.173,170.474 202.84,124.474 214.5,78.5 Z"></path></g>
<g><path style="opacity:1" fill="#0b0b0b" d="M 247.5,120.5 C 248.5,120.5 249.5,120.5 250.5,120.5C 253.606,133.47 256.606,146.47 259.5,159.5C 252.833,159.5 246.167,159.5 239.5,159.5C 242.275,146.518 244.941,133.518 247.5,120.5 Z"></path></g>
<g><path style="opacity:1" fill="#fafafa" d="M 243.5,224.5 C 264.988,223.821 275.155,234.154 274,255.5C 268.899,269.921 258.733,276.088 243.5,274C 229.079,268.899 222.912,258.733 225,243.5C 228.017,233.984 234.184,227.651 243.5,224.5 Z"></path></g>
<g><path style="opacity:1" fill="#fdfdfd" d="M 179.5,283.5 C 194.991,282.504 210.658,282.17 226.5,282.5C 227.632,289.625 229.299,296.625 231.5,303.5C 243.5,304.833 255.5,304.833 267.5,303.5C 269.17,296.826 270.836,290.16 272.5,283.5C 288.167,282.167 303.833,282.167 319.5,283.5C 307.191,328.735 295.191,374.069 283.5,419.5C 260.51,420.5 237.51,420.833 214.5,420.5C 203.592,374.534 191.926,328.867 179.5,283.5 Z"></path></g>
<g><path style="opacity:1" fill="#050505" d="M 239.5,339.5 C 246.2,339.17 252.866,339.503 259.5,340.5C 256.472,353.281 253.138,365.948 249.5,378.5C 245.666,365.679 242.333,352.679 239.5,339.5 Z"></path></g>
</svg></svg></g></g><defs><clipPath id="SvgjsClipPath1085"><rect width="1000" height="1000" x="0" y="0" rx="500" ry="500"></rect></clipPath></defs></svg></g></svg>